<svg version="1.1" id="Layer_1" xmlns="http://www.w3.org/2000/svg" xmlns:xlink="http://www.w3.org/1999/xlink" x="0px" y="0px"
	 width="100%" viewBox="0 0 1024 784" enable-background="new 0 0 1024 784" xml:space="preserve">
<path fill="#000000" opacity="1.000000" stroke="none" 
	d="
M513.375000,785.000000 
	C504.213348,775.163513 494.061279,766.741028 484.547577,757.661682 
	C453.445496,727.979919 422.139496,698.511963 390.940948,668.931152 
	C357.806763,637.515015 324.724640,606.044006 291.554871,574.665588 
	C288.860229,572.116455 287.309174,569.517334 287.311371,565.639465 
	C287.322693,545.477112 287.102570,525.314636 286.997253,505.152008 
	C286.993103,504.359131 287.336731,503.564423 287.497894,502.859863 
	C289.677979,501.680176 291.201721,503.063446 292.727997,503.880554 
	C298.011719,506.709015 303.073151,509.979736 308.787567,511.937836 
	C312.082184,513.066772 312.036774,515.779419 312.042816,518.488525 
	C312.069336,530.321594 312.184204,542.155823 312.044281,553.987000 
	C312.001862,557.573853 312.950531,560.278381 315.638275,562.791748 
	C326.835297,573.262329 337.847870,583.929932 348.963898,594.487549 
	C349.878082,595.355774 350.618683,596.614563 352.535706,596.678101 
	C349.290833,578.350342 347.807709,559.973450 347.957550,541.492004 
	C348.099487,523.984680 349.765381,506.595581 353.106293,489.404633 
	C353.636414,486.676849 353.232910,484.601196 351.792450,482.383453 
	C344.313965,470.869141 335.108734,460.787109 325.815948,450.767059 
	C319.912689,444.401794 314.232727,437.896912 311.295288,429.464600 
	C308.815247,422.345245 308.057739,415.098724 310.020538,407.851715 
	C312.945129,397.053650 315.947266,386.319458 315.105591,374.955750 
	C315.031097,373.950317 315.241333,372.947144 316.917389,371.938995 
	C330.467621,383.104553 337.068085,398.324707 341.265289,415.161804 
	C343.649109,403.245422 345.602997,391.376526 348.698425,379.756714 
	C351.808868,368.080505 355.307648,356.533325 360.908478,344.363922 
	C366.492065,352.645081 372.067230,359.583954 377.623871,366.536865 
	C378.995270,368.252838 377.684631,370.066986 377.102356,371.745209 
	C370.515472,390.729767 365.942963,410.095215 365.928650,430.330261 
	C365.927124,432.495544 365.984497,434.661774 366.069031,436.825439 
	C366.085693,437.251343 366.353333,437.667450 366.627747,438.427307 
	C368.950256,435.924622 369.346558,432.855682 370.418518,430.166077 
	C377.411987,412.618744 386.191284,395.974457 396.051239,379.913513 
	C398.639191,375.697937 398.158173,373.030670 394.758636,369.658783 
	C372.666351,347.746582 359.345764,321.136292 353.555969,290.726013 
	C344.933197,245.435898 357.193573,205.731155 386.409241,170.800049 
	C396.420624,158.830124 408.543549,149.153442 421.340851,140.322937 
	C422.743103,139.355331 423.980133,137.687546 426.204956,138.225510 
	C427.006012,140.560684 425.182587,141.980362 424.252228,143.569595 
	C412.488525,163.664337 402.507507,184.537613 398.057983,207.556656 
	C389.894470,249.789261 401.047882,286.260345 431.428894,316.838318 
	C434.666779,320.097168 436.853088,320.262482 439.791870,316.499725 
	C444.608948,310.331970 449.736725,304.395386 454.946533,298.551270 
	C457.160034,296.068237 457.936584,293.858490 456.848236,290.493805 
	C447.460266,261.470520 457.619720,238.039444 478.046783,217.643372 
	C478.750092,216.941116 479.508881,216.262650 480.632507,216.358078 
	C481.736450,216.895599 481.868744,217.902664 481.687592,218.909546 
	C480.194061,227.210678 481.876251,235.172592 484.363007,243.005615 
	C487.006317,251.331482 488.836212,259.737854 488.060608,268.547028 
	C487.990845,269.339233 487.953491,270.239716 489.310974,270.985596 
	C492.979614,268.800079 495.681427,265.192230 498.826172,262.136047 
	C500.177399,260.822876 498.760254,259.339081 498.248627,257.999237 
	C495.873260,251.778473 493.359711,245.621948 491.728912,239.126770 
	C486.890839,219.857910 493.014801,203.319687 504.352203,188.134171 
	C508.169556,183.021149 512.117981,177.924423 517.175598,173.818008 
	C517.807068,174.585999 518.209290,174.858871 518.178711,175.068771 
	C515.919800,190.588928 522.055481,204.911987 524.549072,219.749298 
	C525.219727,223.740128 525.308472,227.691574 524.608398,231.677872 
	C524.299316,233.438034 523.895264,235.259491 525.518127,237.443954 
	C530.086182,234.504562 534.130127,231.184326 537.833496,227.459000 
	C539.231628,226.052567 537.769958,224.683060 537.216431,223.367599 
	C533.019165,213.391815 528.867004,203.458725 527.348938,192.561401 
	C525.749817,181.081848 527.483459,170.302521 532.729614,160.106339 
	C538.085449,149.697067 545.300110,140.677536 553.644714,132.705841 
	C555.836304,133.731003 555.335327,135.259262 555.093750,136.424896 
	C553.125610,145.918152 555.047485,155.015289 557.983521,163.940887 
	C563.964050,182.121689 562.407654,199.051392 550.276794,214.445480 
	C549.267029,215.726929 547.624573,216.953903 549.697693,219.103745 
	C551.268250,220.732422 549.055054,222.083954 548.068237,223.210037 
	C517.735718,257.821899 490.750397,295.121521 461.697540,330.759949 
	C460.144135,332.665466 458.315399,334.456055 457.598175,336.918121 
	C458.000916,338.920044 459.782288,339.396057 461.157471,340.197113 
	C485.922119,354.623138 512.636963,363.508881 540.809692,368.329010 
	C544.073975,368.887512 545.641663,367.280670 546.577026,364.873596 
	C549.012756,358.605743 553.393005,356.232269 560.081604,356.316315 
	C568.059570,356.416565 576.047180,355.567535 584.033691,355.195251 
	C609.323303,354.016113 634.615723,352.897827 659.903198,351.675995 
	C663.896118,351.483093 667.538330,351.878296 670.404724,355.031555 
	C672.341614,357.162292 674.362915,356.779907 676.650879,355.408356 
	C695.423218,344.155060 712.634277,330.988037 724.666992,312.418457 
	C742.130981,285.467041 745.835632,256.244812 737.382568,225.320129 
	C732.021545,205.707092 723.618469,187.487183 713.059082,170.187042 
	C712.262573,168.881973 710.682068,167.733536 711.863159,164.722351 
	C738.933167,182.732162 761.174622,204.373840 773.762451,234.664566 
	C786.438110,265.166534 787.111816,296.189789 776.880188,327.435333 
	C766.659729,358.646698 746.598755,382.560608 720.469971,401.293732 
	C720.875488,404.181763 722.784668,405.178406 724.176147,406.525818 
	C731.956726,414.060120 739.720581,421.613739 747.621216,429.020996 
	C750.750183,431.954651 752.331177,435.293793 752.265991,439.598297 
	C752.155029,446.929779 752.315125,454.265320 752.209961,461.596985 
	C752.171448,464.280426 753.038818,466.299194 754.877747,468.272980 
	C780.547791,495.824646 806.281677,523.318848 831.717590,551.085815 
	C846.116943,566.804749 844.608582,563.962952 840.760376,582.841553 
	C838.999084,591.482178 837.490234,600.177124 836.022522,608.873718 
	C835.095398,614.366760 833.004150,619.168640 828.296570,622.346680 
	C817.012146,629.964783 807.746216,639.796082 798.317871,649.443115 
	C795.691650,652.130310 792.801758,653.188232 789.044434,653.405212 
	C775.261536,654.201111 761.492371,655.276917 747.735718,656.453430 
	C744.552979,656.725586 741.912964,655.995667 739.194397,654.498474 
	C732.043579,650.560242 724.762695,646.858765 717.599854,642.941772 
	C715.274597,641.670166 713.141907,641.362915 710.481201,642.020813 
	C680.105042,649.532043 649.732117,657.064697 619.265137,664.193237 
	C612.619690,665.748169 608.073792,668.908325 604.283752,674.527466 
	C582.193604,707.277832 562.310669,741.432922 540.465149,774.333252 
	C538.298950,777.595581 536.675903,781.325195 532.305115,784.415405 
	C525.420715,747.535400 518.298889,711.412292 501.842438,677.942383 
	C485.398499,644.498047 463.689178,614.845337 438.733307,586.719727 
	C436.071167,592.588440 434.906586,598.282349 433.993042,603.957153 
	C433.467468,607.222046 436.598175,609.189392 438.480682,611.398193 
	C450.612549,625.632690 461.870636,640.512329 471.353729,656.641602 
	C490.702087,689.550232 503.359283,725.025757 511.266022,762.274292 
	C512.819580,769.593018 514.272217,776.933228 515.885681,784.631714 
	C515.250000,785.000000 514.500000,785.000000 513.375000,785.000000 
M780.024719,531.466919 
	C763.806641,514.014282 747.624451,496.528076 731.331787,479.145325 
	C728.893066,476.543488 727.664551,473.856079 727.751831,470.241455 
	C727.936890,462.581238 727.736023,454.912445 727.811035,447.248322 
	C727.835510,444.752014 727.113281,442.837006 725.260010,441.067688 
	C704.051331,420.819641 682.878296,400.533936 661.773865,380.177246 
	C659.418457,377.905304 656.936035,376.982574 653.716553,377.169708 
	C645.574585,377.642975 637.421814,377.933197 629.272766,378.281189 
	C612.975159,378.977173 596.676697,379.654968 580.379700,380.363556 
	C578.566162,380.442413 576.761292,380.678253 575.138916,381.969116 
	C575.123596,383.889679 576.288635,385.380188 577.070862,386.995209 
	C585.362732,404.115723 583.764404,420.213715 568.751892,433.000519 
	C565.202393,436.023804 561.997375,439.447479 557.666382,441.427032 
	C556.251465,442.073792 554.956238,442.987946 554.754395,444.611389 
	C554.129883,449.635071 551.029053,449.035126 547.482910,448.135529 
	C537.314026,445.555786 527.072327,443.314453 516.599548,442.332306 
	C488.468994,439.694061 464.933960,451.006805 442.845367,466.669586 
	C441.941315,467.310699 440.817261,467.922363 440.800781,469.308899 
	C441.377808,470.651215 442.621307,471.223877 443.754089,471.895355 
	C459.612762,481.295593 476.649933,487.203400 495.076813,488.574585 
	C504.114258,489.247101 513.310486,488.951752 521.149963,483.739746 
	C533.129456,475.775391 546.900085,472.113586 559.921814,466.652527 
	C560.823914,466.274261 561.844604,465.897369 562.713867,467.318634 
	C562.686890,468.353668 561.906006,469.200043 561.123230,470.047577 
	C549.140747,483.021729 537.013916,495.855621 524.514709,508.338165 
	C521.601501,511.247467 518.075562,512.604248 514.245178,512.918274 
	C504.938629,513.681274 495.568420,513.945618 486.296021,512.801514 
	C454.221558,508.844177 427.482208,493.528534 403.096863,473.279633 
	C400.249573,470.915283 400.593658,469.162781 403.154022,466.880798 
	C423.322052,448.905548 445.052399,433.417969 470.649139,423.990479 
	C472.109222,423.452759 473.955505,423.419678 474.669189,421.557709 
	C473.339264,419.802490 471.383575,419.197693 469.552521,418.466705 
	C453.405609,412.020813 438.022217,404.141663 423.649139,394.318115 
	C417.990448,390.450592 417.591644,390.547852 414.169739,396.397430 
	C400.045715,420.541718 389.591248,446.226318 381.914764,473.093842 
	C380.545197,477.887421 381.500793,481.785370 384.533997,485.633209 
	C396.911652,501.334961 409.307678,517.017517 422.847107,531.749756 
	C424.002045,533.006470 424.783722,534.949951 427.341125,534.867859 
	C430.061157,527.786255 432.840851,520.678040 435.512238,513.529419 
	C436.548157,510.757294 438.010101,510.045746 440.853058,511.303467 
	C445.263641,513.254700 449.794708,514.967041 454.365692,516.511414 
	C457.938354,517.718506 458.910431,519.434570 457.562347,523.216248 
	C454.041260,533.093567 451.008759,543.143982 447.658600,553.083984 
	C446.660980,556.044067 446.930054,558.347961 449.131470,560.797119 
	C453.582153,565.748657 457.592926,571.093018 461.982605,576.102295 
	C487.569092,605.300049 510.418762,636.328857 526.523926,671.911865 
	C527.225159,673.461121 528.195496,674.888672 529.040466,676.372925 
	C530.243042,624.014038 540.695618,573.340515 549.929810,522.061646 
	C552.837708,523.445007 552.714783,525.357727 553.028137,526.833618 
	C555.206360,537.093323 557.386169,547.357483 559.251099,557.677002 
	C560.445679,564.287109 562.900085,569.643921 568.389038,574.135986 
	C577.785950,581.826416 586.516052,590.338684 595.414124,598.626221 
	C597.459229,600.531006 599.579285,601.635132 602.366394,602.051331 
	C625.743530,605.542114 649.104553,609.141602 672.465698,612.739197 
	C680.302917,613.946106 688.126404,615.242065 697.256348,616.705811 
	C692.800415,608.565369 686.937012,602.694153 683.271301,595.165039 
	C686.069641,594.703796 687.458313,595.732727 688.877136,596.549072 
	C704.473083,605.522705 719.933716,614.721802 734.978333,624.599487 
	C737.283875,626.113159 739.494873,627.339600 742.396423,626.451660 
	C754.970276,622.603943 767.619019,618.989807 780.123657,614.930786 
	C787.629822,612.494324 793.377075,603.977051 792.735962,597.416077 
	C792.542236,595.432983 791.771790,593.821411 790.046936,592.908875 
	C788.290955,591.979797 787.313416,593.613770 786.232666,594.523560 
	C782.713074,597.486389 778.683472,598.507751 774.629211,596.379211 
	C766.226929,591.967957 760.613525,585.052490 759.066101,575.590271 
	C758.217957,570.404114 760.543762,565.878662 764.353821,562.158142 
	C767.836243,558.757629 771.426208,559.299866 775.316956,561.287231 
	C776.281433,561.779846 777.598389,561.680725 778.753967,561.684998 
	C786.752075,561.714661 794.750488,561.724976 802.748352,561.672241 
	C803.967285,561.664246 805.494873,562.140015 806.484192,559.703979 
	C797.975281,550.618286 789.244934,541.296082 780.024719,531.466919 
M395.068848,563.440125 
	C400.690552,569.697876 405.755341,576.477356 412.469513,582.819458 
	C415.515289,576.353577 416.717377,570.224304 417.777924,564.078064 
	C418.053986,562.478149 416.622955,561.393616 415.629333,560.294250 
	C402.800110,546.098511 390.221802,531.687012 378.089203,516.888062 
	C377.230530,515.840759 376.611084,514.191345 374.402069,514.544800 
	C374.013794,518.660095 373.748901,522.789001 373.209595,526.881775 
	C372.350006,533.404907 374.191193,538.751221 378.714600,543.676941 
	C384.330994,549.792908 389.331482,556.474487 395.068848,563.440125 
M381.843323,585.651672 
	C379.804810,583.343018 377.766266,581.034363 375.727753,578.725769 
	C375.018066,581.720764 375.128967,584.317993 375.549347,586.864197 
	C376.738647,594.067444 378.521271,601.204895 379.217041,608.450195 
	C380.413239,620.906738 384.679504,631.418640 395.437744,638.631348 
	C397.782684,640.203491 399.168640,643.157837 402.499573,643.890320 
	C403.934357,634.838440 405.282776,626.173767 406.693878,617.519287 
	C407.150146,614.720764 405.740417,612.813721 404.029175,610.885010 
	C396.752380,602.683167 389.537262,594.426514 381.843323,585.651672 
M465.547638,705.649719 
	C466.483002,706.214539 466.879059,707.566284 468.647461,707.532776 
	C458.723846,682.466064 445.853210,659.411926 428.070160,638.294800 
	C425.987000,646.261841 426.603699,653.467529 425.578857,660.479309 
	C424.969788,664.646545 425.966888,667.656616 429.124481,670.619446 
	C441.249603,681.996826 453.121429,693.644165 465.547638,705.649719 
z"/>
<path fill="#000000" opacity="1.000000" stroke="none" 
	d="
M535.783325,107.777176 
	C540.475525,103.361458 544.914185,99.193886 549.352905,95.026314 
	C549.833130,95.433403 550.313354,95.840485 550.793579,96.247574 
	C526.113525,125.442879 503.798706,156.373901 482.159210,187.793961 
	C460.443512,219.324722 439.851837,251.565186 421.934296,285.147400 
	C419.665619,285.179504 419.311951,283.716431 418.766479,282.568695 
	C415.689606,276.094910 413.018860,269.464050 410.936646,262.592255 
	C409.902161,259.178162 410.376984,256.308868 412.284454,253.173264 
	C429.057281,225.601425 449.042206,200.456024 470.272888,176.270401 
	C491.051300,152.599960 512.865112,129.901321 535.783325,107.777176 
z"/>
<path fill="#000000" opacity="1.000000" stroke="none" 
	d="
M671.461060,222.423523 
	C677.337463,218.720642 682.905823,215.209656 688.864624,211.452499 
	C689.642090,214.406174 687.810303,215.151611 686.696960,216.085342 
	C642.127747,253.463745 602.680908,295.752075 566.718262,341.362488 
	C564.412964,344.286316 562.047302,345.703430 558.330200,345.463470 
	C555.533020,345.282898 552.696411,345.833435 549.873535,345.901459 
	C546.501404,345.982727 543.922607,347.602692 542.726746,350.511444 
	C540.324219,356.355072 536.377747,357.049835 531.171204,354.760986 
	C529.849915,354.180115 528.112244,354.488586 526.677490,351.978821 
	C566.590088,299.970093 615.146973,257.179749 671.461060,222.423523 
z"/>
<path fill="#000000" opacity="1.000000" stroke="none" 
	d="
M667.098816,96.139542 
	C664.268250,98.978050 663.075867,102.179955 662.414368,105.702904 
	C661.215027,112.089905 659.624756,118.387642 657.406860,124.503914 
	C653.608948,134.977127 646.802307,142.922318 636.891296,148.003220 
	C628.676270,152.214661 619.735229,154.337448 610.764343,156.218811 
	C608.555725,156.682037 605.520447,157.273682 606.133484,153.320892 
	C607.634094,143.644638 608.383789,133.811142 611.998657,124.551331 
	C616.133972,113.958351 623.237305,106.199982 633.612366,101.479065 
	C633.915588,101.341080 634.201843,101.131180 634.519165,101.064003 
	C653.213562,97.107079 664.216003,83.208786 675.487000,69.562874 
	C681.210571,62.633297 687.335083,56.036236 693.205322,49.225849 
	C695.715271,46.313858 698.230957,44.988808 701.668518,47.898335 
	C705.301147,50.972977 704.344910,53.917877 701.702942,56.913872 
	C690.250183,69.901329 678.785522,82.878349 667.098816,96.139542 
z"/>
<path fill="#000000" opacity="1.000000" stroke="none" 
	d="
M698.436401,137.419861 
	C687.610352,149.642197 676.674866,161.313690 666.510315,173.621918 
	C648.069275,195.952118 624.761047,202.518692 597.166077,196.303818 
	C592.677734,195.292953 587.949951,195.051498 584.034302,192.945023 
	C583.400818,191.779236 583.590515,190.939728 584.069214,190.258499 
	C596.746582,172.216232 612.496460,159.999893 636.173279,162.531265 
	C641.134644,163.061691 646.092957,163.376953 651.000000,164.447006 
	C656.157104,165.571594 660.387939,163.715378 663.880676,159.727188 
	C675.830505,146.082291 687.882385,132.526840 699.859985,118.906189 
	C701.708496,116.804100 703.549927,114.942833 706.660645,116.202873 
	C710.561829,117.783150 711.746460,121.677475 709.070435,125.037994 
	C705.757324,129.198547 702.152954,133.127213 698.436401,137.419861 
z"/>
<path fill="#000000" opacity="1.000000" stroke="none" 
	d="
M587.038574,95.054367 
	C600.237488,80.007172 613.229065,65.248657 626.157593,50.435097 
	C628.735840,47.480965 631.412476,46.345173 634.722839,49.150227 
	C638.074341,51.990150 637.316772,54.934315 634.759155,57.806450 
	C623.015259,70.994667 611.502197,84.401421 599.394104,97.246933 
	C593.594299,103.399948 591.811462,109.731277 594.120300,117.712601 
	C597.808655,130.462997 600.141357,143.201355 595.748596,156.472183 
	C592.154785,167.329346 585.002136,175.505676 577.593262,183.647476 
	C575.953674,185.449265 574.330688,185.305771 573.304443,183.035904 
	C562.055908,158.156601 557.372131,133.516296 576.054504,108.482849 
	C579.439392,103.947212 583.214233,99.702637 587.038574,95.054367 
z"/>
<path fill="#000000" opacity="1.000000" stroke="none" 
	d="
M195.389496,300.546997 
	C205.362808,311.997681 215.099945,323.172363 224.803604,334.376038 
	C226.589828,336.438385 228.582321,337.960754 231.315018,338.704224 
	C256.043427,345.431885 265.826904,356.661285 269.294342,382.133057 
	C269.630615,384.603027 269.995667,387.074432 270.183075,389.557587 
	C270.322479,391.404694 269.698395,393.219269 267.461060,392.747803 
	C253.039948,389.709259 238.635284,386.683472 229.498581,373.195160 
	C224.688538,366.094177 222.409561,358.175385 221.124374,349.911133 
	C220.530304,346.091034 218.870499,343.096863 216.394791,340.255157 
	C206.549255,328.954102 196.762299,317.600952 187.060516,306.176361 
	C183.903000,302.458160 185.057709,298.234344 189.248657,297.290466 
	C192.004547,296.669769 193.514160,298.618103 195.389496,300.546997 
z"/>
<path fill="#000000" opacity="1.000000" stroke="none" 
	d="
M182.895844,356.274567 
	C185.584549,356.787018 186.798370,358.660095 188.206436,360.289124 
	C197.795456,371.382874 207.482590,382.393951 216.927673,393.608917 
	C221.408905,398.929871 226.665924,400.763000 233.357727,399.004242 
	C248.148514,395.116943 262.081970,396.570801 274.707336,405.863007 
	C280.005920,409.762756 284.261841,414.652679 288.029572,419.977264 
	C289.553741,422.131226 290.192078,424.476532 286.636444,425.288635 
	C273.461792,428.297607 260.253510,431.349365 246.657364,428.083496 
	C234.383560,425.135254 224.524902,418.300018 216.426712,408.772858 
	C204.231720,394.425964 192.045380,380.071716 179.870758,365.707550 
	C175.901825,361.024841 176.511246,358.924957 182.895844,356.274567 
z"/>
<path fill="#000000" opacity="1.000000" stroke="none" 
	d="
M571.333557,209.169373 
	C581.098083,204.519196 590.941772,202.688293 601.283569,204.707260 
	C613.451355,207.082748 625.578003,208.796341 637.209167,203.900574 
	C638.265198,204.707123 638.424072,205.472519 638.048584,205.996536 
	C626.230530,222.488327 612.407104,236.204071 591.316528,240.009720 
	C576.884338,242.613876 563.268738,238.398758 549.523560,235.245285 
	C545.863403,234.405548 546.772156,232.176056 548.361938,230.034683 
	C554.567932,221.675430 561.532898,214.137436 571.333557,209.169373 
z"/>
<path fill="#000000" opacity="1.000000" stroke="none" 
	d="
M245.273865,299.472412 
	C248.345367,296.524384 250.882050,297.168213 253.227295,299.876923 
	C267.169067,315.979401 281.298187,331.924591 294.994568,348.233185 
	C309.121582,365.054565 309.856354,384.189575 303.466461,404.246277 
	C302.029541,408.756500 301.215149,413.563934 297.538086,417.908173 
	C288.324158,409.569702 280.475220,400.848572 277.724976,388.579498 
	C275.714508,379.610687 276.004395,370.603180 278.961304,361.990326 
	C282.176239,352.625763 280.528656,345.297821 273.506226,338.037598 
	C264.151459,328.366150 255.770050,317.748108 247.071808,307.451111 
	C245.259384,305.305542 242.296921,303.201019 245.273865,299.472412 
z"/>
<path fill="#000000" opacity="1.000000" stroke="none" 
	d="
M568.927002,246.786606 
	C579.784729,249.598038 590.221008,250.205368 600.968079,247.032745 
	C592.326599,260.431946 582.099060,271.792572 567.220825,278.040222 
	C548.787964,285.780548 530.865845,281.788574 512.808472,276.021698 
	C520.008484,260.298615 540.058105,241.573929 568.927002,246.786606 
z"/>
<path fill="#000000" opacity="1.000000" stroke="none" 
	d="
M558.001221,298.983887 
	C543.979370,315.571259 527.167419,325.727417 505.058868,324.973053 
	C497.179810,324.704224 489.641022,322.502533 482.043030,320.676605 
	C478.977661,319.939911 478.423187,318.326630 480.083008,315.586060 
	C489.037720,300.800446 500.792664,290.097687 518.854187,288.105804 
	C524.254456,287.510254 529.510498,288.311920 534.727539,289.177948 
	C543.516052,290.636841 552.212891,291.348328 560.934021,288.927246 
	C561.880371,288.664520 562.902832,288.642517 563.893982,288.596405 
	C564.159058,288.584045 564.439148,288.895386 565.006653,289.233429 
	C563.720825,293.069794 560.603516,295.641693 558.001221,298.983887 
z"/>
<path fill="#000000" opacity="1.000000" stroke="none" 
	d="
M287.251648,466.088318 
	C265.749237,464.159607 252.064072,451.340302 240.218750,435.621033 
	C241.917648,433.540588 243.210785,434.586823 244.346268,434.965424 
	C251.826355,437.459442 259.460266,437.420441 267.061401,436.046051 
	C275.005005,434.609772 283.004791,433.822601 290.905060,435.288696 
	C303.487000,437.623657 312.154694,445.819458 319.277985,455.886902 
	C321.538544,459.081757 319.969696,460.793579 316.717133,461.586365 
	C307.178589,463.911255 297.710541,466.705963 287.251648,466.088318 
z"/>
<path fill="#000000" opacity="1.000000" stroke="none" 
	d="
M327.435303,503.481384 
	C310.687592,504.953094 297.544434,498.145203 285.937134,487.581573 
	C280.939697,483.033478 276.375000,478.050629 272.999512,472.334961 
	C274.014130,471.060883 274.842834,471.268707 275.616180,471.555603 
	C284.417694,474.820740 293.248962,473.857880 302.170654,472.019989 
	C316.508362,469.066406 329.635986,471.592224 340.957550,481.335236 
	C343.238312,483.298004 345.181152,485.599213 346.644287,488.248260 
	C350.223755,494.729065 348.205933,499.510345 341.157928,501.428925 
	C336.805969,502.613617 332.415741,503.499664 327.435303,503.481384 
z"/>
<path fill="#000000" opacity="1.000000" stroke="none" 
	d="
M669.082336,468.008514 
	C674.769165,478.520538 680.277039,488.714752 685.681580,498.717712 
	C683.991028,500.503876 683.020569,499.461029 682.123657,498.898682 
	C679.448120,497.221252 676.710693,495.606964 674.214294,493.686096 
	C666.630615,487.850830 658.935059,485.367462 648.833740,487.677765 
	C635.487183,490.730286 624.030884,482.745758 620.125793,469.736115 
	C619.291260,466.956238 617.691833,465.239105 615.458557,463.606506 
	C612.166382,461.199829 608.093384,459.797211 605.506531,456.328918 
	C606.982971,453.854553 609.428833,454.398163 611.396057,454.188019 
	C622.135864,453.040649 632.885742,451.952423 643.652771,451.105438 
	C652.408142,450.416748 658.880249,454.981781 664.396362,461.118286 
	C666.156982,463.076904 667.415283,465.487091 669.082336,468.008514 
z"/>
</svg>